<mxfile host="app.diagrams.net" agent="Mozilla/5.0 (Macintosh; Intel Mac OS X 10_15_7) AppleWebKit/537.36 (KHTML, like Gecko) Chrome/131.0.0.0 Safari/537.36" version="24.9.3">
  <diagram name="Page-1" id="OyCbQM8D3Gu1m3y_O4TB">
    <mxGraphModel dx="954" dy="581" grid="0" gridSize="10" guides="1" tooltips="1" connect="1" arrows="1" fold="1" page="1" pageScale="1" pageWidth="827" pageHeight="1169" math="0" shadow="0">
      <root>
        <mxCell id="0" />
        <mxCell id="1" parent="0" />
        <mxCell id="eqkEVIQ0wt3xTbLBExX--1" value="Front End" style="shape=umlFrame;whiteSpace=wrap;html=1;pointerEvents=0;width=85;height=28;" vertex="1" parent="1">
          <mxGeometry x="37" y="340" width="300" height="200" as="geometry" />
        </mxCell>
        <mxCell id="eqkEVIQ0wt3xTbLBExX--2" value="Back End" style="shape=umlFrame;whiteSpace=wrap;html=1;pointerEvents=0;width=85;height=28;" vertex="1" parent="1">
          <mxGeometry x="60" y="643" width="300" height="200" as="geometry" />
        </mxCell>
        <mxCell id="eqkEVIQ0wt3xTbLBExX--3" value="Data End" style="shape=umlFrame;whiteSpace=wrap;html=1;pointerEvents=0;width=85;height=28;" vertex="1" parent="1">
          <mxGeometry x="414" y="469" width="364" height="283" as="geometry" />
        </mxCell>
      </root>
    </mxGraphModel>
  </diagram>
</mxfile>
